<svg xmlns="http://www.w3.org/2000/svg" width="200" height="50" viewBox="0 0 200 50">
  <g id="Group_116" data-name="Group 116" transform="translate(-200 -6698.229)">
    <g id="Group_73" data-name="Group 73" transform="translate(0 -34.772)">
      <g id="Group_72" data-name="Group 72" transform="translate(200 6733)">
        <rect id="Rectangle_5" data-name="Rectangle 5" width="200" height="50" transform="translate(0 0)" fill="#fff"/>
      </g>
      <g id="Page-1" transform="translate(232.2 6735.252)">
        <g id="Artboard-1">
          <g id="App-Store">
            <path id="background" d="M4.527,0h125a5.531,5.531,0,0,1,5.527,5.527v35a5.531,5.531,0,0,1-5.527,5.527h-125A5.531,5.531,0,0,1-1,40.531v-35A5.531,5.531,0,0,1,4.527,0Z" transform="translate(1)" fill="#fff"/>
            <g id="icon" transform="translate(12.065 8.106)">
              <path id="Fill-2" d="M17.693,75.85a5.94,5.94,0,0,1,2.819-4.974,6.109,6.109,0,0,0-4.781-2.588c-2.008-.212-3.961,1.207-4.983,1.207-1.041,0-2.625-1.179-4.32-1.151a6.352,6.352,0,0,0-5.352,3.27c-2.312,4.007-.59,9.9,1.63,13.145,1.115,1.584,2.4,3.362,4.108,3.3C8.472,87.991,9.1,87,11.1,87s2.57,1.059,4.3,1.022c1.787-.028,2.9-1.594,3.979-3.2a12.994,12.994,0,0,0,1.815-3.7,5.745,5.745,0,0,1-3.5-5.269" transform="translate(0.023 -61.977)"/>
              <path id="Fill-3" d="M118.3,4.182A5.844,5.844,0,0,0,119.632,0a5.926,5.926,0,0,0-3.841,1.99,5.6,5.6,0,0,0-1.373,4.025A4.909,4.909,0,0,0,118.3,4.182" transform="translate(-103.851)"/>
            </g>
            <g id="Group_70" data-name="Group 70" transform="translate(42.364 20.155)">
              <path id="Fill-4" d="M11.378,16.505H9.056l-1.271-4H3.364l-1.207,4H-.1L4.275,2.9H6.984l4.394,13.605Zm-3.97-5.674L6.256,7.285c-.12-.368-.35-1.216-.682-2.561H5.528c-.138.58-.35,1.437-.645,2.561L3.75,10.831Z" transform="translate(0.1 -2.707)"/>
              <path id="Fill-5" d="M153.451,46.893a5.525,5.525,0,0,1-1.363,3.952,3.971,3.971,0,0,1-3.021,1.29,3.026,3.026,0,0,1-2.8-1.391v5.149h-2.183V45.327c0-1.05-.028-2.119-.083-3.224h1.916l.12,1.557h.037a3.869,3.869,0,0,1,6.2-.387,5.336,5.336,0,0,1,1.179,3.62Zm-2.22.074a4,4,0,0,0-.645-2.358,2.233,2.233,0,0,0-1.9-.967,2.315,2.315,0,0,0-1.465.534,2.467,2.467,0,0,0-.857,1.4,2.982,2.982,0,0,0-.1.663v1.64a2.637,2.637,0,0,0,.654,1.805,2.177,2.177,0,0,0,1.7.737,2.249,2.249,0,0,0,1.916-.949,4.161,4.161,0,0,0,.691-2.506Z" transform="translate(-130.726 -38.114)"/>
              <path id="Fill-6" d="M275.851,46.893a5.525,5.525,0,0,1-1.363,3.952,3.971,3.971,0,0,1-3.021,1.29,3.026,3.026,0,0,1-2.8-1.391v5.149h-2.183V45.327c0-1.05-.028-2.119-.083-3.224h1.916l.12,1.557h.037a3.869,3.869,0,0,1,6.2-.387,5.336,5.336,0,0,1,1.179,3.62Zm-2.22.074a4,4,0,0,0-.645-2.358,2.233,2.233,0,0,0-1.9-.967,2.315,2.315,0,0,0-1.465.534,2.516,2.516,0,0,0-.857,1.4,2.981,2.981,0,0,0-.1.663v1.64a2.637,2.637,0,0,0,.654,1.805,2.177,2.177,0,0,0,1.7.737,2.237,2.237,0,0,0,1.916-.949,4.1,4.1,0,0,0,.691-2.506Z" transform="translate(-241.851 -38.114)"/>
              <path id="Fill-7" d="M422.929,10.785a3.643,3.643,0,0,1-1.207,2.828,5.356,5.356,0,0,1-3.7,1.188,6.48,6.48,0,0,1-3.519-.847l.507-1.815a6.119,6.119,0,0,0,3.15.847,2.967,2.967,0,0,0,1.916-.553,1.805,1.805,0,0,0,.691-1.483A1.918,1.918,0,0,0,420.2,9.56a5.26,5.26,0,0,0-1.879-1.05c-2.4-.894-3.592-2.192-3.592-3.9a3.456,3.456,0,0,1,1.262-2.745A5.006,5.006,0,0,1,419.336.8a6.573,6.573,0,0,1,3.086.645l-.553,1.769a5.437,5.437,0,0,0-2.616-.626,2.714,2.714,0,0,0-1.805.562,1.635,1.635,0,0,0-.543,1.234,1.654,1.654,0,0,0,.626,1.326,7.027,7.027,0,0,0,1.98,1.05,6.64,6.64,0,0,1,2.579,1.658,3.447,3.447,0,0,1,.838,2.367" transform="translate(-376.309 -0.8)"/>
              <path id="Fill-8" d="M525.569,21.681h-2.4v4.762c0,1.207.424,1.815,1.271,1.815a4.044,4.044,0,0,0,.967-.1l.064,1.658a5.055,5.055,0,0,1-1.695.24,2.609,2.609,0,0,1-2.017-.792,3.845,3.845,0,0,1-.728-2.644V21.671H519.6v-1.63h1.428v-1.8l2.137-.645v2.441h2.4v1.64" transform="translate(-471.728 -16.052)"/>
              <path id="Fill-9" d="M607.108,47.02a5.388,5.388,0,0,1-1.29,3.712,4.617,4.617,0,0,1-3.593,1.492A4.421,4.421,0,0,1,598.78,50.8a5.186,5.186,0,0,1-1.28-3.611,5.35,5.35,0,0,1,1.317-3.731A4.6,4.6,0,0,1,602.382,42a4.483,4.483,0,0,1,3.473,1.437A5.12,5.12,0,0,1,607.108,47.02Zm-2.257.046a4.4,4.4,0,0,0-.58-2.312,2.261,2.261,0,0,0-3.961,0,4.988,4.988,0,0,0,0,4.67,2.237,2.237,0,0,0,3.943-.018A4.463,4.463,0,0,0,604.851,47.066Z" transform="translate(-542.452 -38.205)"/>
              <path id="Fill-10" d="M726.96,44.019a4.038,4.038,0,0,0-.691-.055,2.057,2.057,0,0,0-1.778.866,3.286,3.286,0,0,0-.543,1.934v5.149h-2.183V45.189c0-1.133-.018-2.165-.064-3.086h1.9l.083,1.879h.065a3.344,3.344,0,0,1,1.087-1.557,2.652,2.652,0,0,1,1.575-.525,4.588,4.588,0,0,1,.544.037l.009,2.082" transform="translate(-655.211 -38.114)"/>
              <path id="Fill-11" d="M798.623,46.27a4.986,4.986,0,0,1-.083.986H792a2.844,2.844,0,0,0,.949,2.22,3.266,3.266,0,0,0,2.137.682,7.338,7.338,0,0,0,2.644-.461l.341,1.511a8.185,8.185,0,0,1-3.289.608,4.765,4.765,0,0,1-3.583-1.345,4.965,4.965,0,0,1-1.3-3.6,5.629,5.629,0,0,1,1.216-3.694,4.174,4.174,0,0,1,3.427-1.575,3.64,3.64,0,0,1,3.206,1.575A5.328,5.328,0,0,1,798.623,46.27Zm-2.082-.562a2.937,2.937,0,0,0-.424-1.676,1.9,1.9,0,0,0-1.732-.912,2.07,2.07,0,0,0-1.732.884,3.276,3.276,0,0,0-.645,1.695Z" transform="translate(-717.129 -37.842)"/>
            </g>
            <g id="Available-on-the" transform="translate(43.174 8.447)">
              <path id="Fill-12" d="M5.347,11.188H4.2L3.578,9.226H1.4l-.6,1.962H-.3L1.846,4.5H3.173ZM3.385,8.4l-.562-1.75c-.055-.175-.166-.6-.341-1.262H2.463c-.074.286-.166.7-.322,1.262L1.588,8.4Z" transform="translate(0.3 -4.15)"/>
              <path id="Fill-13" d="M73.733,24.7,71.91,29.527H70.869L69.1,24.7h1.151l.82,2.552c.138.424.258.829.35,1.216h.028c.083-.35.2-.755.35-1.216L72.61,24.7h1.124" transform="translate(-62.707 -22.489)"/>
              <path id="Fill-14" d="M132.094,28.71l-.083-.553h-.028a1.658,1.658,0,0,1-1.409.663A1.4,1.4,0,0,1,129.1,27.4c0-1.188,1.032-1.805,2.819-1.805V25.5c0-.636-.341-.949-1-.949a2.25,2.25,0,0,0-1.262.359l-.221-.7a3.1,3.1,0,0,1,1.658-.415c1.262,0,1.9.663,1.9,2v1.778a6.421,6.421,0,0,0,.074,1.151Zm-.147-2.4c-1.188,0-1.787.286-1.787.976a.683.683,0,0,0,.737.755,1.025,1.025,0,0,0,1.05-.986Z" transform="translate(-117.18 -21.672)"/>
              <path id="Fill-15" d="M190.936,3.48a.64.64,0,1,1,.018-1.28.624.624,0,0,1,.654.636A.627.627,0,0,1,190.936,3.48Zm-.516.792h1.069V9.09H190.42Z" transform="translate(-172.743 -2.062)"/>
              <path id="Fill-16" d="M223.9.7h1.069V7.728H223.9Z" transform="translate(-203.248 -0.7)"/>
              <path id="Fill-17" d="M255.394,28.619l-.083-.553h-.028a1.658,1.658,0,0,1-1.409.663,1.4,1.4,0,0,1-1.474-1.419c0-1.188,1.032-1.805,2.819-1.805v-.092c0-.636-.341-.949-1-.949a2.25,2.25,0,0,0-1.262.359l-.221-.709a3.1,3.1,0,0,1,1.658-.415c1.262,0,1.9.663,1.9,2v1.778a7.616,7.616,0,0,0,.064,1.151h-.958Zm-.147-2.4c-1.188,0-1.787.286-1.787.976a.683.683,0,0,0,.737.755,1.025,1.025,0,0,0,1.05-.986Z" transform="translate(-229.122 -21.581)"/>
              <path id="Fill-18" d="M317.015,7.848a1.641,1.641,0,0,1-1.52-.857h-.018l-.064.746H314.5c.028-.387.037-.82.037-1.3V.7h1.078V3.62h.018a1.657,1.657,0,0,1,1.538-.8c1.161,0,1.971.995,1.971,2.441A2.321,2.321,0,0,1,317.015,7.848Zm-.221-4.191a1.23,1.23,0,0,0-1.179,1.28v.847a1.178,1.178,0,0,0,1.161,1.207c.8,0,1.28-.654,1.28-1.695,0-.976-.5-1.64-1.262-1.64Z" transform="translate(-285.502 -0.7)"/>
              <path id="Fill-19" d="M382.1.7h1.069V7.728H382.1Z" transform="translate(-346.875 -0.7)"/>
              <path id="Fill-20" d="M415.146,26.282h-3.215a1.384,1.384,0,0,0,1.52,1.428,3.623,3.623,0,0,0,1.3-.23l.166.746a3.907,3.907,0,0,1-1.612.295,2.238,2.238,0,0,1-2.4-2.432,2.356,2.356,0,0,1,2.284-2.588,2.031,2.031,0,0,1,2.008,2.294A1.867,1.867,0,0,1,415.146,26.282Zm-.976-.765c0-.746-.378-1.271-1.059-1.271a1.271,1.271,0,0,0-1.17,1.271Z" transform="translate(-373.022 -21.4)"/>
              <path id="Fill-21" d="M504.621,28.729a2.292,2.292,0,0,1-2.321-2.478,2.347,2.347,0,0,1,2.4-2.552,2.275,2.275,0,0,1,2.321,2.469A2.365,2.365,0,0,1,504.621,28.729Zm.046-4.247c-.774,0-1.271.728-1.271,1.732s.507,1.713,1.262,1.713,1.262-.774,1.262-1.741S505.423,24.483,504.667,24.483Z" transform="translate(-456.003 -21.581)"/>
              <path id="Fill-22" d="M574.519,28.528H573.45V25.756c0-.857-.332-1.28-.976-1.28a1.108,1.108,0,0,0-1.069,1.179v2.865h-1.068V25.083c0-.424-.009-.884-.037-1.382h.94l.046.746h.028a1.734,1.734,0,0,1,1.529-.847c1.013,0,1.677.774,1.677,2.036v2.892" transform="translate(-517.739 -21.491)"/>
              <path id="Fill-23" d="M663.42,13.708h-1.179v2.34c0,.6.212.894.626.894a2.344,2.344,0,0,0,.479-.046l.028.811a2.322,2.322,0,0,1-.829.12c-.847,0-1.345-.47-1.345-1.686V13.708h-.7v-.8h.7v-.884l1.05-.322v1.2h1.179v.811" transform="translate(-599.63 -10.687)"/>
              <path id="Fill-24" d="M712.582,7.738h-1.069V4.983c0-.866-.332-1.3-.976-1.3a1.05,1.05,0,0,0-1.069,1.142v2.9H708.4V.7h1.068V3.592h.018a1.62,1.62,0,0,1,1.446-.783c1.022,0,1.649.792,1.649,2.054V7.738" transform="translate(-643.118 -0.7)"/>
              <path id="Fill-25" d="M771.347,26.282h-3.215a1.384,1.384,0,0,0,1.52,1.428,3.623,3.623,0,0,0,1.3-.23l.166.746a3.907,3.907,0,0,1-1.612.295,2.238,2.238,0,0,1-2.4-2.432,2.356,2.356,0,0,1,2.285-2.588,2.031,2.031,0,0,1,2.008,2.294A1.867,1.867,0,0,1,771.347,26.282Zm-.976-.765c0-.746-.378-1.271-1.059-1.271a1.264,1.264,0,0,0-1.17,1.271Z" transform="translate(-696.411 -21.4)"/>
            </g>
          </g>
        </g>
      </g>
    </g>
  </g>
</svg>
