<svg xmlns="http://www.w3.org/2000/svg" width="175" height="158.409" viewBox="0 0 175 158.409">
  <g id="Group_115" data-name="Group 115" transform="translate(-200 -5638)">
    <rect id="Rectangle_7" data-name="Rectangle 7" width="100" height="100" transform="translate(275 5696)" fill="#009218" opacity="0.2"/>
    <g id="rating" transform="translate(186.411 5638)">
      <path id="Path_85" data-name="Path 85" d="M383.805,141.306a3.053,3.053,0,0,0,2.753-.03c2.466-1.285,10.517-5.981,10.609-12.442a7.77,7.77,0,0,0-12-6.531,7.694,7.694,0,0,0-4.216-1.253,8,8,0,0,0-7.795,7.7C373.02,135.459,381.273,140.057,383.805,141.306Zm-2.878-15.615h.022a3.1,3.1,0,0,1,2.131.855h0a3.048,3.048,0,0,0,4.158,0,3.134,3.134,0,0,1,5.287,2.219c-.044,3.058-4.377,6.3-7.394,8-3.05-1.642-7.4-4.8-7.338-7.922A3.293,3.293,0,0,1,380.928,125.691Z" transform="translate(-248.318 -83.597)" fill="#2f2f2f"/>
      <path id="Path_86" data-name="Path 86" d="M71.668,141.306a3.053,3.053,0,0,0,2.752-.03c2.465-1.285,10.516-5.981,10.609-12.442a7.77,7.77,0,0,0-12-6.531,7.7,7.7,0,0,0-4.271-1.253,7.883,7.883,0,0,0-7.74,7.7c-.135,6.7,8.118,11.3,10.651,12.552ZM68.79,125.691h.022a3.1,3.1,0,0,1,2.131.855h0a3.048,3.048,0,0,0,4.158,0,3.134,3.134,0,0,1,5.287,2.219c-.044,3.058-4.377,6.3-7.395,8-3.05-1.642-7.4-4.8-7.337-7.922A3.292,3.292,0,0,1,68.79,125.691Z" transform="translate(-32.753 -83.597)" fill="#2f2f2f"/>
      <path id="Path_87" data-name="Path 87" d="M29.509,64.87h7.466a.993.993,0,0,1,.705.291l5.054,5.044a3.992,3.992,0,0,0,5.6.019l5.151-5.068a.992.992,0,0,1,.7-.287h7.376a8.3,8.3,0,0,0,8.294-8.294v-8.7a10.57,10.57,0,0,0,3.6.63h10a2.66,2.66,0,0,1,1.995.9l5.058,5.746a4.646,4.646,0,0,0,3.467,1.575H94a4.647,4.647,0,0,0,3.461-1.547l5.18-5.79a2.66,2.66,0,0,1,1.98-.885h9.893a10.577,10.577,0,0,0,3.27-.518v8.588a8.3,8.3,0,0,0,8.294,8.294h7.466a.993.993,0,0,1,.705.291l5.054,5.044a3.992,3.992,0,0,0,5.6.019l5.152-5.068a.993.993,0,0,1,.7-.286h7.376a8.3,8.3,0,0,0,8.294-8.294V35.043a8.3,8.3,0,0,0-8.294-8.294h-33V10.617A10.629,10.629,0,0,0,114.518,0h-18.9a2.32,2.32,0,1,0,0,4.641h18.9a5.983,5.983,0,0,1,5.976,5.976V37.889a5.983,5.983,0,0,1-5.976,5.976h-9.893A7.308,7.308,0,0,0,99.185,46.3L94,52.087l-5.058-5.746a7.3,7.3,0,0,0-5.478-2.476h-10a5.983,5.983,0,0,1-5.976-5.976V10.617A5.983,5.983,0,0,1,73.46,4.641H84.785a2.32,2.32,0,1,0,0-4.641H73.46A10.629,10.629,0,0,0,62.843,10.617V26.75H29.509a8.3,8.3,0,0,0-8.294,8.294V56.576A8.3,8.3,0,0,0,29.509,64.87ZM158.137,31.391a3.657,3.657,0,0,1,3.653,3.653V56.576a3.657,3.657,0,0,1-3.653,3.653h-7.376a5.605,5.605,0,0,0-3.955,1.619l-4.685,4.609-4.59-4.581a5.6,5.6,0,0,0-3.983-1.648h-7.466a3.657,3.657,0,0,1-3.653-3.653V44.959a10.574,10.574,0,0,0,2.706-7.071v-6.5h33ZM25.856,35.044a3.657,3.657,0,0,1,3.653-3.653H62.843v6.5a10.567,10.567,0,0,0,2.374,6.681V56.576a3.657,3.657,0,0,1-3.653,3.653H54.187a5.607,5.607,0,0,0-3.955,1.619l-4.685,4.609-4.59-4.581a5.6,5.6,0,0,0-3.983-1.648H29.509a3.657,3.657,0,0,1-3.653-3.653V35.044Z" transform="translate(-5.267)" fill="#2f2f2f"/>
      <path id="Path_88" data-name="Path 88" d="M200.9,47.059c-.193,9.556,11.929,16.286,15.648,18.12a3.441,3.441,0,0,0,3.1-.034c3.629-1.891,15.477-8.779,15.61-18.006a10.684,10.684,0,0,0-17.176-8.486,10.623,10.623,0,0,0-6.541-2.2A10.846,10.846,0,0,0,200.9,47.059Zm10.677-5.964h.043a5.987,5.987,0,0,1,4.119,1.648h0a3.433,3.433,0,0,0,4.685,0,6.047,6.047,0,0,1,10.2,4.33c-.074,5.137-6.7,10.5-12.569,13.668-5.961-3.055-12.617-8.327-12.511-13.588A6.251,6.251,0,0,1,211.574,41.095Z" transform="translate(-129.355 -25.174)" fill="#2f2f2f"/>
      <path id="Path_89" data-name="Path 89" d="M162.188,273.15v-33.8A25.237,25.237,0,0,0,125.446,216.9a2.32,2.32,0,1,0,2.121,4.128,20.359,20.359,0,0,1,9.393-2.262,20.611,20.611,0,0,1,20.588,20.588v29.706c-.063-.027-.124-.059-.188-.086h0l-11.686-4.816v-4.536c4.466-4.459,7.9-11.61,7.9-18.188,0-8.472-3.771-15.128-10.089-17.807a2.324,2.324,0,0,0-1.8,0,2.414,2.414,0,0,0-1.375,1.646,16.74,16.74,0,0,1-12.822,12.76l-5.311,1.137a2.692,2.692,0,0,0-1.829,2.733,27.52,27.52,0,0,0,7.9,17.752v4.508l-9.232,3.8a11.554,11.554,0,0,0-2.642-2.386V239.35a20.457,20.457,0,0,1,3.718-11.8,2.32,2.32,0,0,0-3.8-2.664,25.074,25.074,0,0,0-4.559,14.469v24.075l-12.7-5.232v-8.815c5.813-4.709,9.258-13.181,9.9-21.515,3.042-2.183,4.819-6.6,5.8-10.133a8.608,8.608,0,0,0-1.13-7.088,8.505,8.505,0,0,0-3.495-3,8.9,8.9,0,0,0,.1-2.366,8.813,8.813,0,0,0-12.561-7.164,10.214,10.214,0,0,0-13.981-4.23,8.82,8.82,0,0,0-13.833,4.2,11.6,11.6,0,0,0-6.973,18.5,29.307,29.307,0,0,0,.4,6.01,11.041,11.041,0,0,0,5.418,7.6,38.021,38.021,0,0,0,.886,4.494,2.446,2.446,0,0,0,2.833,1.656,2.32,2.32,0,0,0,1.656-2.833,33.4,33.4,0,0,1-.89-4.82c-.1-.9.233-1.292,2.267-2.285a9.375,9.375,0,0,0,4.227-3.229,13.576,13.576,0,0,0,12.3-6,10.379,10.379,0,0,0,6.457,1.7,10.763,10.763,0,0,0,4.14,4.567c1.382.953,1.808,1.249,1.816,3-.48,10.845-6.48,22.043-15.711,22.043-5.1,0-8.526-3.242-10.5-5.961a2.321,2.321,0,1,0-3.755,2.727,21.652,21.652,0,0,0,3.886,4.144v8.791l-15.377,6.336A11.6,11.6,0,0,0,58.268,268l-9.336-3.847v-7.135a27.022,27.022,0,0,0,7.533-11.8,2.318,2.318,0,0,0,1.625-1.043c2.412-3.768,7.046-15.2-.383-22.718a11.511,11.511,0,0,0-10.416-2.929,7.342,7.342,0,0,0-.486-.894c-3.134-4.9-11.233-5.583-18.44-1.562a2.32,2.32,0,1,0,2.261,4.053c5.405-3.014,10.708-2.428,12.27.011a5.061,5.061,0,0,1,.114,4.261,12.459,12.459,0,0,1-7.6,7.338A27.246,27.246,0,0,0,24.926,238.6a21.131,21.131,0,0,1-.177-11.407,2.321,2.321,0,1,0-4.444-1.34c-2.141,7.1-.043,15.245,2.049,18.514a2.32,2.32,0,0,0,1.68,1.052A27.1,27.1,0,0,0,31.5,257v7.154c-.213.093-11.591,4.765-11.817,4.875a10.027,10.027,0,0,0-6.1,9.245v7.313a5.424,5.424,0,0,0,5.417,5.418H158.171a5.423,5.423,0,0,0,5.417-5.417v-7.313a10.045,10.045,0,0,0-1.4-5.125ZM102.137,215.6a2.32,2.32,0,0,0-2.951-1.582,5.263,5.263,0,0,1-5.983-2.057,2.32,2.32,0,0,0-4.125.579,8.8,8.8,0,0,1-8.378,6.067,15.8,15.8,0,0,1-2.04-.268,2.321,2.321,0,0,0-2.7,1.78c-.2.908-.889,1.319-2.532,2.1a9.453,9.453,0,0,0-3.887,2.839,6.346,6.346,0,0,1-1.72-3.325,25.922,25.922,0,0,1-.281-5.773,2.321,2.321,0,0,0-.611-1.757,6.957,6.957,0,0,1,4.9-11.682,2.321,2.321,0,0,0,2.242-2.1,4.17,4.17,0,0,1,7.479-2.125,2.32,2.32,0,0,0,3.376.341,5.566,5.566,0,0,1,9.2,3.554,2.321,2.321,0,0,0,4.092,1.221,4.139,4.139,0,0,1,3.6-1.5,4.176,4.176,0,0,1,3.282,6.166,2.32,2.32,0,0,0,1.791,3.425,3.9,3.9,0,0,1,2.858,1.708,3.971,3.971,0,0,1,.519,3.271,21.9,21.9,0,0,1-2.354,5.7,9,9,0,0,0-2.72-2.565,6.2,6.2,0,0,1-3.048-4.025Zm26.322,26.963a21.4,21.4,0,0,0,15.5-13.321c3.155,2.463,4.975,6.827,4.975,12.189,0,8.327-7.247,17.961-11.974,17.961-4.381,0-10.924-8.2-11.861-16.108Zm-43.921,43.8A45.594,45.594,0,0,0,75.9,264.2l4.162-1.715a12.959,12.959,0,0,0,8.6,3.265h0a12.963,12.963,0,0,0,8.6-3.264l4.1,1.688a45.618,45.618,0,0,0-8.711,22.195ZM105.8,266l6.839,2.818a6.948,6.948,0,0,1,4.315,6.445v11.1H97.323A40.914,40.914,0,0,1,105.8,266Zm-17.146-12.87a15.939,15.939,0,0,0,5.735-1.048v6.737a8.326,8.326,0,0,1-5.732,2.286h0a8.325,8.325,0,0,1-5.731-2.284v-6.733A16.041,16.041,0,0,0,88.656,253.132ZM55.721,286.365H51.674l4.047-4.7Zm.028-11.841-10.2,11.841H34.989L24.351,272.123l8.946-3.686a10.771,10.771,0,0,0,6.92,2.518h0a10.768,10.768,0,0,0,6.921-2.518l9.009,3.712a11.628,11.628,0,0,0-.4,2.375Zm-1.342-49.805c4.039,4.09,2.767,10.293,1.174,14.181a39.279,39.279,0,0,0-6.355-5.139,11.191,11.191,0,0,1-3.82-3.984,15.136,15.136,0,0,0,2-3.892A12.061,12.061,0,0,0,48,223.132,7.038,7.038,0,0,1,54.406,224.719ZM27.942,242.167A22.539,22.539,0,0,1,37,236.1a18.269,18.269,0,0,0,5.1-2.844,16.171,16.171,0,0,0,4.624,4.416,34.826,34.826,0,0,1,5.727,4.668c-1.79,7.619-8.029,13.961-12.234,13.961s-10.536-6.45-12.275-14.132Zm12.275,18.772a10.446,10.446,0,0,0,4.075-.895v4.723a6.132,6.132,0,0,1-4.073,1.546h0a6.131,6.131,0,0,1-4.072-1.548v-4.729A10.389,10.389,0,0,0,40.217,260.939ZM18.23,285.588v-7.313a5.4,5.4,0,0,1,1.867-4.093l9.1,12.182H19.007A.777.777,0,0,1,18.23,285.588Zm42.131-10.323a6.948,6.948,0,0,1,4.315-6.445l6.782-2.794a40.9,40.9,0,0,1,8.4,20.339h-19.5v-11.1Zm61.236,11.1v-11.1a11.66,11.66,0,0,0-.443-3.168l7.109-2.93c.09,5.846.631,11.99,3.884,17.2Zm11.289-20.66v-2.678a8.725,8.725,0,0,0,8.146,0c0,.006,0,2.452,0,2.693,0,6.964,0,14.15-4.073,19.445-4.071-5.287-4.073-12.48-4.073-19.451A.027.027,0,0,0,132.887,265.7Zm26.062,19.884a.777.777,0,0,1-.777.777h-16.4c3.254-5.212,3.8-11.354,3.886-17.2l9.936,4.094h0a5.4,5.4,0,0,1,3.357,5.013Z" transform="translate(0 -132.596)" fill="#2f2f2f"/>
    </g>
  </g>
</svg>
