<svg id="Group_17" data-name="Group 17" xmlns="http://www.w3.org/2000/svg" width="219.206" height="46.569" viewBox="0 0 219.206 46.569">
  <g id="Group_1" data-name="Group 1" transform="translate(69.206 7)">
    <path id="Path_1" data-name="Path 1" d="M0,955.328V923.35H10.122a10.43,10.43,0,0,1,7.289,2.469,8.514,8.514,0,0,1,2.719,6.629,8.87,8.87,0,0,1-1.394,4.937,7.971,7.971,0,0,1-3.816,3.12,19.407,19.407,0,0,1-6.946.971H4.593v13.852H0Zm9.322-27.909H4.593v9.989h5a6.339,6.339,0,0,0,4.3-1.314,4.72,4.72,0,0,0,1.508-3.76Q15.4,927.419,9.322,927.419Z" transform="translate(0 -922.939)" fill="#fff"/>
    <rect id="Rectangle_4" data-name="Rectangle 4" width="4.57" height="31.932" transform="translate(24.151 0.457)" fill="#fff"/>
    <path id="Path_2" data-name="Path 2" d="M244.12,946.01v5.029a23.846,23.846,0,0,1-11.607,2.743,17.881,17.881,0,0,1-9.071-2.149,15.817,15.817,0,0,1-5.895-5.92,16.081,16.081,0,0,1-2.171-8.16,15.585,15.585,0,0,1,4.97-11.726,17.051,17.051,0,0,1,12.258-4.754,28.746,28.746,0,0,1,11.173,2.629v4.914a21.988,21.988,0,0,0-10.944-3.2,12.65,12.65,0,0,0-9.105,3.463,12.227,12.227,0,0,0-.057,17.315,12.706,12.706,0,0,0,9.117,3.383,20.672,20.672,0,0,0,11.333-3.566Z" transform="translate(-180.807 -921.026)" fill="#fff"/>
    <path id="Path_3" data-name="Path 3" d="M437.727,920.788a17.158,17.158,0,0,1,12.318,4.686,15.546,15.546,0,0,1,4.921,11.749A15.3,15.3,0,0,1,450,948.914a17.651,17.651,0,0,1-12.524,4.629,16.642,16.642,0,0,1-12.022-4.629,15.436,15.436,0,0,1-4.806-11.6,15.781,15.781,0,0,1,4.841-11.84A16.881,16.881,0,0,1,437.727,920.788Zm.183,4.343a12.385,12.385,0,0,0-9.005,3.429,11.681,11.681,0,0,0-3.527,8.754,11.471,11.471,0,0,0,3.538,8.594,13.131,13.131,0,0,0,17.771-.068,11.692,11.692,0,0,0,3.573-8.709,11.42,11.42,0,0,0-3.573-8.537A12.127,12.127,0,0,0,437.91,925.131Z" transform="translate(-353.131 -920.788)" fill="#fff"/>
    <path id="Path_4" data-name="Path 4" d="M669.478,923.636h4.57v27.772h14.372v4.16H669.478Z" transform="translate(-562.022 -923.179)" fill="#fff"/>
    <path id="Path_5" data-name="Path 5" d="M781.164,923.636h5.547l-11.79,15.04v16.892h-4.684V938.676l-11.79-15.04h5.516l8.542,11.009Z" transform="translate(-636.711 -923.179)" fill="#fff"/>
  </g>
  <path id="Path_6" data-name="Path 6" d="M103.171,17.568s.211,6.616,2.365,11.191c.422,1.182,2.28,7.01,2.449,9.587s.231,5.068-.465,6.25l-1.16,1.973a23.2,23.2,0,0,0-2.134-5.858l-1.637-4.327L98.356,35.6l3.8,1.1a15.83,15.83,0,0,1,.971,2.2,30.406,30.406,0,0,0,1.412,3.1s-6.445-.579-8.328-4.006c-.483-.7-1.641-2.606-1.231-7.94.072-1.472.555-7.24,1.979-8.808s6.21-3.669,6.21-3.669Zm14.473,0s2.568,1.1,5.1,1.965,6.453,3.953,6.453,3.953l.98-6.931h5.845s.473,8.249-2.162,13.35c-.3.743-1.926,4.831-3.074,5.541-.439.3-1.047.743-2.23-.507l-5.134-4.768s-2.2,3.517-3.278,5.241-5.029,7.414-5.326,8.488a12.408,12.408,0,0,0-.3,2.67,9.423,9.423,0,0,1-1.878-7.914c1.014-4.73,3.035-10.778,3.581-13.109s1.419-7.979,1.419-7.979Zm-10.819,1.016,3.843,1.309,3.854-1.288-.106,3.547-3.79-1.922-3.759,1.985ZM110.879,0c3.252,0,5.892,3.709,5.892,8.277s-2.64,8.277-5.892,8.277-5.892-3.709-5.892-8.277S107.627,0,110.879,0Zm23.252,12.911-.1,2.5-4.223-.034s.1-2.973-.676-3.547a14.407,14.407,0,0,0-2.061-1.164s1.284-.593,1.926-.187,2.012,1.96,3.964,1.689c1.365-.189,2.489-2.128,4.347-2.095l1.925.035A20.583,20.583,0,0,1,137.307,12c-.642.473-1.453,1.149-1.993,1.115A7.341,7.341,0,0,1,134.131,12.911Zm-12.125-4.8H144.9V9.418h-22.89Z" transform="translate(-94.895)" fill="#fff" fill-rule="evenodd"/>
</svg>
