<svg xmlns="http://www.w3.org/2000/svg" width="27.011" height="27.057" viewBox="0 0 27.011 27.057">
  <g id="Group_18" data-name="Group 18" transform="translate(0 0)">
    <g id="bxl-instagram-alt" transform="translate(0 0)">
      <path id="Path_11" data-name="Path 11" d="M31.42,12.457a9.8,9.8,0,0,0-.628-3.324,6.915,6.915,0,0,0-3.95-3.95,9.909,9.909,0,0,0-3.279-.63C22.12,4.488,21.663,4.47,18,4.47s-4.133,0-5.565.083a9.909,9.909,0,0,0-3.277.63,6.911,6.911,0,0,0-3.95,3.95,9.831,9.831,0,0,0-.628,3.277c-.065,1.444-.084,1.9-.084,5.565s0,4.131.084,5.565a9.887,9.887,0,0,0,.628,3.28,6.915,6.915,0,0,0,3.951,3.948,9.876,9.876,0,0,0,3.277.675c1.444.065,1.9.084,5.565.084s4.133,0,5.565-.084a9.885,9.885,0,0,0,3.279-.628,6.923,6.923,0,0,0,3.95-3.95,9.852,9.852,0,0,0,.628-3.28c.065-1.443.084-1.9.084-5.565s0-4.128-.087-5.564ZM17.991,24.9a6.934,6.934,0,1,1,6.934-6.934A6.932,6.932,0,0,1,17.991,24.9ZM25.2,12.394a1.617,1.617,0,1,1,1.615-1.617A1.615,1.615,0,0,1,25.2,12.394Z" transform="translate(-4.495 -4.47)" fill="#fff"/>
      <path id="Path_12" data-name="Path 12" d="M22.5,17.968a4.5,4.5,0,1,1-4.5-4.505,4.5,4.5,0,0,1,4.5,4.505Z" transform="translate(-4.495 -4.47)" fill="#fff"/>
    </g>
  </g>
</svg>
