<svg xmlns="http://www.w3.org/2000/svg" xmlns:xlink="http://www.w3.org/1999/xlink" width="157" height="157" viewBox="0 0 157 157">
  <defs>
    <filter id="Ellipse_7" x="0" y="0" width="157" height="157" filterUnits="userSpaceOnUse">
      <feOffset input="SourceAlpha"/>
      <feGaussianBlur stdDeviation="10" result="blur"/>
      <feFlood flood-color="#707070" flood-opacity="0.569"/>
      <feComposite operator="in" in2="blur"/>
      <feComposite in="SourceGraphic"/>
    </filter>
  </defs>
  <g id="Group_147" data-name="Group 147" transform="translate(-1747 -4350)">
    <g id="Group_87" data-name="Group 87" transform="translate(1777.328 4380)">
      <g transform="matrix(1, 0, 0, 1, -30.33, -30)" filter="url(#Ellipse_7)">
        <circle id="Ellipse_7-2" data-name="Ellipse 7" cx="48.5" cy="48.5" r="48.5" transform="translate(30 30)" fill="#e52040"/>
      </g>
      <path id="chat" d="M0,19.121a15.893,15.893,0,0,0,3.25,9.608A22.051,22.051,0,0,0,12.1,35.7a29.012,29.012,0,0,0,12.179,2.551,29.064,29.064,0,0,0,9.628-1.6l-.082.124,14.689,4.4a22.306,22.306,0,0,1-2.9-5.205,20.1,20.1,0,0,1-1.3-4.34l-.164-1.563a16.154,16.154,0,0,0,4.362-10.946,15.807,15.807,0,0,0-3.25-9.587,22.13,22.13,0,0,0-8.826-6.952A28.93,28.93,0,0,0,24.275.031,28.957,28.957,0,0,0,12.1,2.582,22.161,22.161,0,0,0,3.25,9.535,15.8,15.8,0,0,0,0,19.122Zm10.287,0a2.812,2.812,0,0,1,.864-2.058,2.849,2.849,0,0,1,2.1-.864,2.949,2.949,0,0,1,2.921,2.921,2.856,2.856,0,0,1-.864,2.1,2.81,2.81,0,0,1-2.058.864,2.949,2.949,0,0,1-2.962-2.962Zm10.287,0a2.812,2.812,0,0,1,.864-2.058,2.849,2.849,0,0,1,2.1-.864,2.949,2.949,0,0,1,2.921,2.921,2.856,2.856,0,0,1-.864,2.1,2.81,2.81,0,0,1-2.058.864,2.949,2.949,0,0,1-2.962-2.962Zm10.287,0a2.812,2.812,0,0,1,.864-2.058,2.849,2.849,0,0,1,2.1-.864,2.949,2.949,0,0,1,2.921,2.921,2.856,2.856,0,0,1-.864,2.1,2.81,2.81,0,0,1-2.058.864,2.949,2.949,0,0,1-2.962-2.962Z" transform="translate(24.471 28.266)" fill="#fff"/>
    </g>
  </g>
</svg>
