<svg xmlns="http://www.w3.org/2000/svg" width="26.066" height="26.066" viewBox="0 0 26.066 26.066">
  <g id="next" transform="translate(32.165 -30.744) rotate(45)">
    <g id="Group_89" data-name="Group 89" transform="translate(0 43.478)">
      <g id="Group_88" data-name="Group 88">
        <path id="Path_103" data-name="Path 103" d="M23.794,235.408H1.005a1.005,1.005,0,0,0,0,2.011H23.794a1.005,1.005,0,0,0,0-2.011Z" transform="translate(0 -235.408)" fill="#e52040"/>
      </g>
    </g>
    <g id="Group_91" data-name="Group 91" transform="translate(13.137 33.625)">
      <g id="Group_90" data-name="Group 90" transform="translate(0 0)">
        <path id="Path_104" data-name="Path 104" d="M280.608,43.772l-9.852-9.853a1.005,1.005,0,0,0-1.422,1.422l9.142,9.142-9.142,9.142a1.005,1.005,0,1,0,1.422,1.422l9.852-9.853A1,1,0,0,0,280.608,43.772Z" transform="translate(-269.04 -33.625)" fill="#e52040"/>
      </g>
    </g>
  </g>
</svg>
