<svg xmlns="http://www.w3.org/2000/svg" width="175" height="140.493" viewBox="0 0 175 140.493">
  <g id="Group_116" data-name="Group 116" transform="translate(-732 -5656)">
    <rect id="Rectangle_7" data-name="Rectangle 7" width="100" height="100" transform="translate(807 5696)" fill="#009218" opacity="0.2"/>
    <g id="employee" transform="translate(732 5639.776)">
      <g id="Group_77" data-name="Group 77" transform="translate(0 16.224)">
        <path id="Path_81" data-name="Path 81" d="M147.8,135.074a2.2,2.2,0,0,0-2.2,2.2v14.681a.37.37,0,0,1-.37.37h-8.349v-32.1a2.2,2.2,0,1,0-4.395,0v32.1H116.358l4.367-4.8a3.513,3.513,0,0,0,.851-2.819c0-.022-.006-.044-.01-.066l-4.909-29,.9-1.36.235.167a3.44,3.44,0,0,0,5.069-1.268h0l4.995-10.011,11.41,4.419a10.936,10.936,0,0,1,6.335,9.915v9.523a2.2,2.2,0,0,0,4.395,0v-9.523a15.322,15.322,0,0,0-9.067-13.984l-.042-.017L121.461,95.97v-4a16.045,16.045,0,0,0,5.8-9.965,7.668,7.668,0,0,0,4.08-1.8,7.566,7.566,0,0,0,.922-10.519V63.757a21.026,21.026,0,0,0-34.7-15.989,7.553,7.553,0,0,0-1.7-4.572V37.267a21.043,21.043,0,1,0-42.086,0V43.35a7.168,7.168,0,0,0-1.7,4.4,20.949,20.949,0,0,0-8.287-4.341,2.2,2.2,0,0,0-1.119,4.25,16.653,16.653,0,0,1,12.4,16.1v3.286c-.095-.02-.4-.072-.411-.074a2.531,2.531,0,0,0-.525-1.485c-.562-.808-1.573-1.815-4.822-5.307a3.473,3.473,0,0,0-4.452-.543,31.4,31.4,0,0,1-18.6,5.12A3.512,3.512,0,0,0,22.4,67c-.049.008-.592.117-.622.125V63.757a16.755,16.755,0,0,1,11.839-15.94,2.2,2.2,0,1,0-1.268-4.208,21.21,21.21,0,0,0-10.729,7.485,20.853,20.853,0,0,0-4.237,12.664v6.084a7.161,7.161,0,0,0-1.705,4.632A7.587,7.587,0,0,0,22.393,82a16.23,16.23,0,0,0,6.123,10.222v3.744L9.109,103.495l-.041.016A15.319,15.319,0,0,0,0,117.494v34.459a4.77,4.77,0,0,0,4.765,4.765H72.432A4.735,4.735,0,0,0,75,155.96a4.732,4.732,0,0,0,2.568.757h67.667A4.77,4.77,0,0,0,150,151.953V137.271A2.2,2.2,0,0,0,147.8,135.074ZM22.178,77.464a3.172,3.172,0,0,1-2.111-2.992,3.245,3.245,0,0,1,2.111-2.859Zm101.565,24.1-4.313,8.644-4.859-3.451,5.393-6.657ZM111.4,103.7l-5.683-7.015V94.576a17.72,17.72,0,0,0,5.71.934h0a16.245,16.245,0,0,0,5.643-1.025V96.7Zm2.58,8.028-.808,1.217h-3.542l-.808-1.217,2.58-1.832ZM74.994,77.207l-5.683-7.015V68.085a17.719,17.719,0,0,0,5.71.934h0a16.242,16.242,0,0,0,5.643-1.025v2.212Zm2.58,8.029-.808,1.217H73.223l-.808-1.217,2.58-1.832ZM57.691,55.3a7.857,7.857,0,0,0,1.1.211,16.23,16.23,0,0,0,6.123,10.222V69.48l-4.483,1.738a7.531,7.531,0,0,0-.97-1.531V63.757A20.991,20.991,0,0,0,57.691,55.3Zm28.98-2.327a11.85,11.85,0,0,1-23.7,0V42.684a35.982,35.982,0,0,0,20.039-5.447c1.981,2.125,3.16,3.359,3.657,3.932C86.67,46.64,86.67,48.752,86.67,52.976Zm4.193,2.536a7.905,7.905,0,0,0,1.1-.211,20.915,20.915,0,0,0-1.78,8.457v6.083a7.5,7.5,0,0,0-.869,1.284l-4.25-1.646v-4A16.048,16.048,0,0,0,90.863,55.512Zm-24.446,18.1,5.394,6.658-3.679,2.613-.006,0-1.167.829-4.313-8.644Zm13.634,4.331,3.512-4.335,3.779,1.463L83.029,83.72l-1.17-.831,0,0L78.17,80.268Zm1.107,9.835.235.167a3.44,3.44,0,0,0,5.069-1.268h0l3.708-7.432a7.713,7.713,0,0,0,5.015,2.762,15.974,15.974,0,0,0,6.132,10.216V95.97l-18.681,7.242L80.255,89.142Zm21.659,12.324,5.394,6.658-4.852,3.446-4.313-8.644Zm20.253-20.639a11.849,11.849,0,0,1-23.7,0V69.174a36,36,0,0,0,20.039-5.447c1.981,2.125,3.16,3.359,3.657,3.932C123.071,73.13,123.071,75.243,123.071,79.467Zm6.507-4.995a3.172,3.172,0,0,1-2.111,2.992V71.487A3.167,3.167,0,0,1,129.578,74.472Zm-35-10.715a16.648,16.648,0,1,1,33.3,0v3.286c-.1-.021-.375-.068-.411-.074a2.532,2.532,0,0,0-.525-1.485c-.577-.829-1.576-1.819-4.822-5.307a3.476,3.476,0,0,0-4.452-.543A31.457,31.457,0,0,1,98.9,64.746,3.456,3.456,0,0,0,95.2,67c-.049.008-.592.117-.622.125V63.757Zm.406,7.856v5.848a3.165,3.165,0,0,1-2.111-2.989A3.244,3.244,0,0,1,94.981,71.613Zm-1.8-23.631a3.161,3.161,0,0,1-1.1,2.4,3.252,3.252,0,0,1-1.012.591V45A3.168,3.168,0,0,1,93.176,47.982ZM74.822,20.619A16.667,16.667,0,0,1,91.47,37.267v3.286c-.1-.021-.375-.068-.411-.074a2.662,2.662,0,0,0-.622-1.622c-.588-.8-1.673-1.891-4.724-5.171a3.475,3.475,0,0,0-4.452-.543,31.387,31.387,0,0,1-18.94,5.1A3.492,3.492,0,0,0,58.8,40.513c-.049.008-.592.117-.622.125V37.267h0A16.667,16.667,0,0,1,74.822,20.619Zm-16.243,24.5v5.851a3.172,3.172,0,0,1-2.111-2.992A3.246,3.246,0,0,1,58.579,45.122ZM54.664,71.487a3.173,3.173,0,0,1,0,5.975Zm-.2,10.523a7.705,7.705,0,0,0,5.222-3.032l3.843,7.7h0a3.439,3.439,0,0,0,5.069,1.268l.235-.167.9,1.36-2.381,14.067L48.66,95.969v-4h0A16.061,16.061,0,0,0,54.46,82.01ZM38.593,103.7,32.91,96.683V94.576a17.712,17.712,0,0,0,5.71.934h0a16.237,16.237,0,0,0,5.643-1.025V96.7Zm2.58,8.028-.808,1.217H36.822l-.808-1.217,2.58-1.832ZM47.162,100.1l3.779,1.464-4.313,8.644-1.17-.831,0,0-3.685-2.617ZM26.573,79.467V69.174a36.014,36.014,0,0,0,20.039-5.447c1.963,2.1,3.16,3.358,3.657,3.932V79.467a11.85,11.85,0,0,1-23.7,0Zm3.443,20.639,5.394,6.658-3.679,2.613-.006,0-1.167.829-4.313-8.644ZM17.509,152.323v-32.1a2.2,2.2,0,1,0-4.395,0v32.1H4.765a.37.37,0,0,1-.37-.37V117.494a10.937,10.937,0,0,1,6.331-9.914l11.4-4.421,5,10.011h0a3.44,3.44,0,0,0,5.069,1.268l.235-.167.9,1.36-4.909,29c0,.022-.007.044-.01.066a3.517,3.517,0,0,0,.851,2.82l4.366,4.8H17.509Zm15.325-7.411L37.5,117.338h2.185l4.667,27.574-5.759,6.336ZM72.8,151.953a.37.37,0,0,1-.37.37H64.084v-32.1a2.2,2.2,0,1,0-4.395,0v32.1H43.555l4.367-4.8a3.513,3.513,0,0,0,.851-2.819c0-.022-.006-.044-.01-.066l-4.909-29,.9-1.36.235.167a3.439,3.439,0,0,0,5.07-1.268h0l4.995-10.011,11.41,4.419a10.913,10.913,0,0,1,6.335,9.915v34.459ZM75,109.51a15.645,15.645,0,0,0-3.583-3.982L73.9,90.848h2.185l2.486,14.688A15.656,15.656,0,0,0,75,109.51Zm15.311,42.814h0v-32.1a2.2,2.2,0,1,0-4.395,0v32.1H77.568a.371.371,0,0,1-.37-.37V117.494a10.5,10.5,0,0,1,2.564-7.039,11.828,11.828,0,0,1,3.768-2.875l11.4-4.421,5,10.011h0A3.439,3.439,0,0,0,105,114.439l.235-.167.9,1.36-4.909,29c0,.022-.007.044-.01.066a3.517,3.517,0,0,0,.851,2.82l4.366,4.8H90.311Zm15.325-7.411,4.667-27.574h2.185l4.667,27.574-5.76,6.336Z" transform="translate(0 -16.224)" fill="#2f2f2f"/>
      </g>
    </g>
  </g>
</svg>
