<svg id="push-pin" xmlns="http://www.w3.org/2000/svg" width="30" height="30" viewBox="0 0 30 30">
  <path id="Path_102" data-name="Path 102" d="M19.352,0,18.73.622a4.4,4.4,0,0,0-.647,5.39L11.8,10.26l-.109-.109a6.159,6.159,0,0,0-8.7,0l-.622.621,7.81,7.81L0,28.757,1.243,30,11.418,19.825l7.81,7.81.622-.622a6.159,6.159,0,0,0,0-8.7L19.74,18.2l4.248-6.287a4.4,4.4,0,0,0,5.39-.647L30,10.648Zm-.187,25.087L4.913,10.835a4.4,4.4,0,0,1,5.531.559l8.162,8.162A4.4,4.4,0,0,1,19.165,25.087Zm-.691-8.149-5.413-5.413,6.181-4.177,3.408,3.408Zm5.932-6.912L19.973,5.593a2.641,2.641,0,0,1-.515-3l7.949,7.949A2.641,2.641,0,0,1,24.407,10.027Z" transform="translate(0)" fill="#2f2f2f"/>
</svg>
