<svg xmlns="http://www.w3.org/2000/svg" width="28" height="22.74" viewBox="0 0 28 22.74">
  <g id="Group_19" data-name="Group 19" transform="translate(0)">
    <path id="twitter" d="M28.269,2.7a12.009,12.009,0,0,1-2.878,2.967q.017.249.017.746a16.3,16.3,0,0,1-.675,4.61,16.664,16.664,0,0,1-2.051,4.415,17.351,17.351,0,0,1-3.278,3.74,14.586,14.586,0,0,1-4.584,2.594,16.8,16.8,0,0,1-5.739.968A15.936,15.936,0,0,1,.269,20.165a12.275,12.275,0,0,0,1.386.071,11.232,11.232,0,0,0,7.124-2.452A5.747,5.747,0,0,1,3.414,13.8a7.3,7.3,0,0,0,1.084.088,5.946,5.946,0,0,0,1.51-.2,5.643,5.643,0,0,1-3.3-1.981,5.541,5.541,0,0,1-1.305-3.65V7.995A5.689,5.689,0,0,0,4,8.723,5.729,5.729,0,0,1,2.136,6.68a5.6,5.6,0,0,1-.693-2.736,5.62,5.62,0,0,1,.782-2.9A16.253,16.253,0,0,0,7.456,5.286a16,16,0,0,0,6.6,1.767,6.374,6.374,0,0,1-.142-1.315,5.53,5.53,0,0,1,1.679-4.059,5.752,5.752,0,0,1,8.252.133A11.231,11.231,0,0,0,27.487.426a5.575,5.575,0,0,1-2.523,3.162,11.438,11.438,0,0,0,3.3-.888Z" transform="translate(-0.269)" fill="#ddd"/>
  </g>
</svg>
