<svg xmlns="http://www.w3.org/2000/svg" width="183" height="158.417" viewBox="0 0 183 158.417">
  <g id="Group_117" data-name="Group 117" transform="translate(-1263 -5638)">
    <rect id="Rectangle_8" data-name="Rectangle 8" width="100" height="100" transform="translate(1346 5696)" fill="#009218" opacity="0.2"/>
    <g id="bar-chart" transform="translate(1249.399 5638)">
      <g id="Group_79" data-name="Group 79" transform="translate(13.601 45.376)">
        <g id="Group_78" data-name="Group 78" transform="translate(0)">
          <path id="Path_90" data-name="Path 90" d="M160.507,253.507h-6.786V154.971a8.327,8.327,0,0,0-8.317-8.317H130.235a8.327,8.327,0,0,0-8.317,8.317v98.535H104.686V199.616a8.327,8.327,0,0,0-8.317-8.317H81.2a8.327,8.327,0,0,0-8.317,8.317v53.891H55.651V225.6a8.327,8.327,0,0,0-8.317-8.317H32.165a8.327,8.327,0,0,0-8.317,8.317v27.91H16.7a3.094,3.094,0,1,0,0,6.188H160.507a3.094,3.094,0,1,0,0-6.188Zm-111.045,0H30.035V225.6a2.132,2.132,0,0,1,2.129-2.129H47.333a2.132,2.132,0,0,1,2.129,2.129v27.91Zm49.035,0H79.07V199.616a2.132,2.132,0,0,1,2.129-2.129H96.368a2.132,2.132,0,0,1,2.129,2.129Zm49.035,0H128.105V154.971a2.132,2.132,0,0,1,2.129-2.129H145.4a2.132,2.132,0,0,1,2.129,2.129v98.535Z" transform="translate(-13.601 -146.654)" fill="#2f2f2f"/>
        </g>
      </g>
      <g id="Group_81" data-name="Group 81" transform="translate(40.131)">
        <g id="Group_80" data-name="Group 80">
          <path id="Path_91" data-name="Path 91" d="M212.928,3.254A3.083,3.083,0,0,0,209.682.007c-.05,0-.1-.007-.15-.007H190.813a3.094,3.094,0,0,0,0,6.188h11.559L171.785,36.776,160.25,25.241a3.094,3.094,0,0,0-4.376,0L100.252,80.863a3.094,3.094,0,0,0,4.376,4.375L158.062,31.8,169.6,43.339a3.1,3.1,0,0,0,4.376,0l32.775-32.775V21.025a3.094,3.094,0,1,0,6.188,0V3.4C212.936,3.353,212.93,3.3,212.928,3.254Z" transform="translate(-99.346)" fill="#2f2f2f"/>
        </g>
      </g>
      <g id="Group_83" data-name="Group 83" transform="translate(29.702 90.752)">
        <g id="Group_82" data-name="Group 82">
          <circle id="Ellipse_53" data-name="Ellipse 53" cx="3.094" cy="3.094" r="3.094" fill="#2f2f2f"/>
        </g>
      </g>
    </g>
  </g>
</svg>
