<svg xmlns="http://www.w3.org/2000/svg" width="29.772" height="36" viewBox="0 0 29.772 36">
  <g id="Group_20" data-name="Group 20" transform="translate(0)">
    <path id="youtube" d="M19.507,24.991V29.23q0,1.346-.783,1.346a1.289,1.289,0,0,1-.9-.442V24.087a1.289,1.289,0,0,1,.9-.442q.783,0,.783,1.346Zm6.79.02v.924H24.489v-.924q0-1.366.9-1.366t.9,1.366ZM6.891,20.632h2.15V18.744H2.772v1.888H4.881V32.063H6.89V20.632Zm5.786,11.431h1.788V22.139H12.677v7.594q-.6.844-1.145.844-.362,0-.422-.422a5.61,5.61,0,0,1-.02-.7V22.139H9.3v7.855a4.966,4.966,0,0,0,.161,1.467,1.082,1.082,0,0,0,1.165.743,2.942,2.942,0,0,0,2.049-1.225v1.085ZM21.3,29.09V25.132a7.136,7.136,0,0,0-.181-1.989,1.4,1.4,0,0,0-1.426-1.125A2.42,2.42,0,0,0,17.82,23.1v-4.36H16.032V32.062H17.82V31.1a2.492,2.492,0,0,0,1.868,1.1,1.39,1.39,0,0,0,1.426-1.1,7.375,7.375,0,0,0,.181-2.009Zm6.79-.2v-.261H26.257a9.971,9.971,0,0,1-.04,1.225.769.769,0,0,1-.8.723q-.924,0-.924-1.386V27.442h3.6V25.373a3.988,3.988,0,0,0-.542-2.33,2.745,2.745,0,0,0-4.279,0,3.871,3.871,0,0,0-.563,2.33v3.475a3.77,3.77,0,0,0,.583,2.33,2.578,2.578,0,0,0,2.17,1.025,2.487,2.487,0,0,0,2.592-2.15,8.883,8.883,0,0,0,.04-1.165ZM15.871,10.547V6.328q0-1.386-.864-1.386t-.864,1.386v4.219q0,1.406.864,1.406T15.871,10.547ZM30.315,25.634a34.824,34.824,0,0,1-.522,7.031,3.816,3.816,0,0,1-1.165,1.989,3.51,3.51,0,0,1-2.049.924A107.381,107.381,0,0,1,15.429,36a107.381,107.381,0,0,1-11.15-.422,3.565,3.565,0,0,1-2.059-.924,3.668,3.668,0,0,1-1.155-1.989,34.11,34.11,0,0,1-.522-7.031A34.824,34.824,0,0,1,1.065,18.6,3.816,3.816,0,0,1,2.23,16.614,3.638,3.638,0,0,1,4.3,15.67q3.676-.4,11.129-.4t11.15.4A3.772,3.772,0,0,1,29.792,18.6a34.11,34.11,0,0,1,.522,7.031ZM10.266,0h2.049L9.884,8.016V13.46H7.875V8.016A33.972,33.972,0,0,0,6.65,3.757Q5.906,1.688,5.344,0H7.473L8.9,5.283ZM17.7,6.69v3.516a3.96,3.96,0,0,1-.563,2.371A2.5,2.5,0,0,1,15.007,13.6,2.483,2.483,0,0,1,12.9,12.577a4.012,4.012,0,0,1-.563-2.371V6.69A3.913,3.913,0,0,1,12.9,4.34a2.483,2.483,0,0,1,2.109-1.025A2.5,2.5,0,0,1,17.136,4.34,3.913,3.913,0,0,1,17.7,6.69Zm6.73-3.254V13.461H22.6V12.356A2.892,2.892,0,0,1,20.532,13.6a1.116,1.116,0,0,1-1.185-.743,5.146,5.146,0,0,1-.161-1.507V3.435h1.828v7.373a5.282,5.282,0,0,0,.02.7q.06.442.422.442.542,0,1.145-.864V3.435h1.828Z" transform="translate(-0.543)" fill="#ddd"/>
  </g>
</svg>
